<svg height="496pt" viewBox="0 0 496 496" width="496pt" xmlns="http://www.w3.org/2000/svg" xmlns:xlink="http://www.w3.org/1999/xlink"><linearGradient id="a" gradientUnits="userSpaceOnUse" x1="248" x2="248" y1="496" y2="0"><stop offset="0" stop-color="#9f2fff"/><stop offset="1" stop-color="#0bb1d3"/></linearGradient><path d="m440 0h-3.3125l-144 144h-292.6875v352h464v-352h-52.6875l84.6875-84.6875v-3.3125c0-30.871094-25.128906-56-56-56zm-64 83.3125 12.6875 12.6875-124.6875 124.6875-12.6875-12.6875zm-104.96875 167.03125-29.597656 4.222656 4.222656-29.597656zm-255.03125-90.34375h260.6875l-44.222656 44.222656-.542969 3.777344h-215.921875zm432 320h-432v-256h213.632812l-7.066406 49.433594 69.203125-9.890625 39.542969-39.542969h116.6875zm0-320v48h-100.6875l48-48zm-160 84.6875-12.6875-12.6875 124.6875-124.6875 12.6875 12.6875zm136-136-36.6875-36.6875 12.6875-12.6875 36.6875 36.6875zm24-24-36.6875-36.6875 31.871094-31.871094c19.519531 1.542969 35.144531 17.160156 36.6875 36.6875zm-416 91.3125h16v16h-16zm32 0h16v16h-16zm32 0h16v16h-16zm112 64h-176v144h48v80h176v-144h-48zm-160 128v-112h144v112zm192-32v112h-144v-64h112v-48zm176-48h16v16h-16zm-16 16h-128v-16h128zm-128 16h160v16h-160zm0 32h160v16h-160zm0 32h160v16h-160zm16 48h-16v-16h16zm16-16h128v16h-128zm-32 32h160v16h-160zm48-192h112v16h-112zm-288 192h16v16h-16zm0-32h16v16h-16zm0 0" fill="url(#a)"/></svg>