<svg height="496pt" viewBox="0 0 496 496" width="496pt" xmlns="http://www.w3.org/2000/svg" xmlns:xlink="http://www.w3.org/1999/xlink"><linearGradient id="a" gradientUnits="userSpaceOnUse" x1="248" x2="248" y1="496" y2="0"><stop offset="0" stop-color="#9f2fff"/><stop offset="1" stop-color="#0bb1d3"/></linearGradient><path d="m368 331.3125 128-128v-3.3125c0-30.878906-25.121094-56-56-56h-3.3125l-68.6875 68.6875v-212.6875h-283.3125l-84.6875 84.6875v411.3125h368zm-120 97.375-12.6875-12.6875 164.6875-164.6875 12.6875 12.6875zm195.183594-268.558594c19.519531 1.542969 35.144531 17.167969 36.6875 36.6875l-31.871094 31.871094-36.6875-36.6875zm-43.183594 43.183594 36.6875 36.6875-12.6875 12.6875-36.6875-36.6875zm-24 24 12.6875 12.6875-164.6875 164.6875-12.6875-12.6875zm-144.96875 207.03125-29.597656 4.222656 4.222656-29.597656zm-151.03125-407.03125v52.6875h-52.6875zm272 452.6875h-336v-384h80v-80h256v212.6875l-159.542969 159.542969-9.890625 69.203125 69.203125-9.890625 100.230469-100.230469zm-40-400c13.230469 0 24-10.769531 24-24s-10.769531-24-24-24-24 10.769531-24 24 10.769531 24 24 24zm0-32c4.40625 0 8 3.59375 8 8s-3.59375 8-8 8-8-3.59375-8-8 3.59375-8 8-8zm-64 32c13.230469 0 24-10.769531 24-24s-10.769531-24-24-24-24 10.769531-24 24 10.769531 24 24 24zm0-32c4.40625 0 8 3.59375 8 8s-3.59375 8-8 8-8-3.59375-8-8 3.59375-8 8-8zm-64 32c13.230469 0 24-10.769531 24-24s-10.769531-24-24-24-24 10.769531-24 24 10.769531 24 24 24zm0-32c4.40625 0 8 3.59375 8 8s-3.59375 8-8 8-8-3.59375-8-8 3.59375-8 8-8zm152 64h-208v-16h208zm0 32h-304v-16h304zm-304 304h136v16h-136zm120-32h16v16h-16zm-16 16h-104v-16h104zm-104-48h136v16h-136zm0-32h136v16h-136zm192-192h-192v176h192zm-16 160h-160v-144h160zm32-160h96v16h-96zm0 32h96v16h-96zm0 32h96v16h-96zm-160 64h-16v-16h16zm0-32h-16v-64h48v16h-32zm256 208h-32v-16h16v-56h16zm-48 0h-16v-16h16zm0 0" fill="url(#a)"/></svg>