<svg height="502pt" viewBox="0 -109 502.01846 502" width="502pt" xmlns="http://www.w3.org/2000/svg" xmlns:xlink="http://www.w3.org/1999/xlink"><linearGradient id="a"><stop offset="0" stop-color="#00efd1"/><stop offset="1" stop-color="#00acea"/></linearGradient><linearGradient id="b" gradientUnits="userSpaceOnUse" x1="236.009232" x2="236.009232" xlink:href="#a" y1="-77.2766" y2="358.8004"/><linearGradient id="c" gradientUnits="userSpaceOnUse" x1="251.009232" x2="251.009232" xlink:href="#a" y1="-77.2766" y2="358.8004"/><path d="m236.007812 86.738281c8.753907.007813 15.847657 7.101563 15.855469 15.855469 0 4.417969 3.582031 8 8 8s8-3.582031 8-8c-.019531-14.886719-10.332031-27.785156-24.855469-31.070312v-7.511719c0-4.417969-3.582031-8-8-8-4.417968 0-8 3.582031-8 8v8.03125c-15.191406 4.472656-24.789062 19.425781-22.527343 35.101562 2.261719 15.671875 15.691406 27.304688 31.527343 27.304688 8.53125 0 15.53125 6.75 15.839844 15.273437.308594 8.527344-6.1875 15.765625-14.699218 16.378906-.753907-.121093-1.523438-.121093-2.28125 0-8.285157-.601562-14.703126-7.492187-14.714844-15.800781 0-4.417969-3.578125-8-8-8-4.417969 0-8 3.582031-8 8 .019531 14.507813 9.820312 27.175781 23.855468 30.839844v6.871094c0 4.417969 3.582032 8 8 8 4.417969 0 8-3.582031 8-8v-6.871094c15.519532-4.027344 25.628907-18.964844 23.597657-34.867187-2.03125-15.90625-15.5625-27.824219-31.597657-27.824219-8.753906 0-15.855468-7.097657-15.855468-15.855469s7.101562-15.855469 15.855468-15.855469zm0 0" fill="url(#b)"/><path d="m236.007812 28.480469c-54.414062 0-98.527343 44.113281-98.527343 98.53125 0 54.414062 44.113281 98.527343 98.527343 98.527343 54.417969 0 98.53125-44.113281 98.53125-98.527343-.0625-54.390625-44.136718-98.46875-98.53125-98.53125zm0 181.058593c-45.578124 0-82.527343-36.949218-82.527343-82.527343 0-45.582031 36.949219-82.53125 82.527343-82.53125 45.582032 0 82.53125 36.949219 82.53125 82.53125-.050781 45.558593-36.972656 82.476562-82.53125 82.527343zm0 0" fill="url(#b)"/><path d="m494.5 30.011719h-22.492188v-22.246094c.105469-2.042969-.644531-4.039063-2.070312-5.507813-1.421875-1.46875-3.390625-2.2851558-5.4375-2.2460932h-456.984375c-2.042969-.0390626-4.011719.7773432-5.4375 2.2460932-1.421875 1.46875-2.171875 3.464844-2.0703125 5.507813v238.492187c-.1015625 2.042969.6484375 4.035157 2.0703125 5.503907 1.425781 1.472656 3.394531 2.285156 5.4375 2.25h22.492187v22.246093c-.101562 2.042969.648438 4.035157 2.070313 5.503907 1.425781 1.472656 3.394531 2.285156 5.4375 2.25h456.984375c2.046875.035156 4.015625-.777344 5.4375-2.25 1.425781-1.46875 2.175781-3.460938 2.070312-5.503907v-238.492187c.105469-2.042969-.644531-4.039063-2.070312-5.507813-1.421875-1.46875-3.390625-2.285156-5.4375-2.246093zm-38.492188 144.207031c-33 3.71875-59.6875 30.792969-63.246093 63.792969h-313.40625c-3.5625-33-30.347657-60.128907-63.347657-63.800781v-94.742188c33-3.703125 59.511719-30.457031 63.214844-63.457031h313.75c3.699219 33 30.035156 59.660156 63.035156 63.433593zm0 16.125v47.667969h-47.121093c3.390625-24 23.121093-44.125 47.121093-47.667969zm0-127.023438c-24-3.585937-43.398437-23.308593-46.910156-47.308593h46.910156zm-392.910156-47.308593c-3.523437 24-23.089844 43.8125-47.089844 47.332031v-47.332031zm-47.089844 174.320312c24.574219 3.660157 43.800782 23.070313 47.222657 47.679688h-47.222657zm470 77.679688h-440v-14h418.492188c2.046875.035156 4.015625-.777344 5.4375-2.25 1.425781-1.46875 2.175781-3.460938 2.070312-5.503907v-200.246093h14zm0 0" fill="url(#c)"/></svg>